<?xml version="1.0" ?><!DOCTYPE svg  PUBLIC '-//W3C//DTD SVG 1.1//EN'  'http://www.w3.org/Graphics/SVG/1.1/DTD/svg11.dtd'><svg enable-background="new 0 0 70 70" id="Layer_1" version="1.1" viewBox="0 0 70 70" xml:space="preserve" xmlns="http://www.w3.org/2000/svg" xmlns:xlink="http://www.w3.org/1999/xlink"><g><path d="M25.5576172,67.2944336c-0.0009766,0-0.0019531,0-0.0019531,0   c-0.1962891,0-19.5791016-0.019043-20.5976563-1.637207c-1.0341797-1.6425781-1.171875-55.3769531-0.1523438-59.2739258   c0.0664063-0.2553711,0.1835938-0.5698242,0.4951172-0.7387695l0.1669922-0.0908203l0.2167969-0.0063477   c0.4580078,0,0.8154297,0.3120117,1.6621094,1.4511719c4.7646484,6.4140625,34.0214844,55.5966797,33.1835938,58.3725586   C40.328125,66.0429688,39.9511719,67.2944336,25.5576172,67.2944336z M6.2421875,64.7558594   c1.6123047,0.4868164,10.1455078,1.0385742,19.3134766,1.0385742c0,0,0.0009766,0,0.0019531,0   c9.0371094,0,12.6191406-0.5493164,13.4755859-0.9331055C37.8447266,60.2670898,11.4296875,14.625,6.0820313,7.753418   C5.1845703,15.6738281,5.7001953,60.7954102,6.2421875,64.7558594z" fill="#373684"/><path d="M20.4609375,58.7460938c0,0,0,0-0.0009766,0c-4.8242188,0-7.4931641-0.3720703-7.9335938-1.105957   c-0.7490234-1.2485352-0.9882813-19.3632813-0.2851563-21.5371094c0.0458984-0.1396484,0.1835938-0.5654297,0.5878906-0.7392578   l0.1416016-0.0605469l0.1914063-0.0073242c1.9736328,0,12.0449219,17.3056641,13.34375,20.3710938   c0.4638672,1.0932617,0.6298828,1.7729492,0.1845703,2.2333984C26.4658203,58.1318359,25.8710938,58.7460938,20.4609375,58.7460938   z M13.8066406,56.7592773c0.7148438,0.2163086,3.2333984,0.4868164,6.6533203,0.4868164c0.0009766,0,0.0009766,0,0.0009766,0   c2.7070313,0,4.2890625-0.1767578,4.9257813-0.3364258c-0.8105469-2.6826172-9.1923828-16.4365234-11.8710938-19.5786133   C13.0722656,40.9902344,13.3623047,54.5053711,13.8066406,56.7592773z" fill="#373684"/><path d="M19.3613281,54.9106445c-1.8417969,0-2.7285156-0.2973633-3.0898438-0.9204102   c-0.5976563-1.0341797-1.0146484-8.1577148-0.5302734-9.0742188c0.6132813-1.168457,2.9306641-0.9804688,3.6923828-0.8222656   c0.4052734,0.0839844,0.6660156,0.480957,0.5820313,0.8867188s-0.4824219,0.6650391-0.8867188,0.5820313   c-0.8046875-0.1665039-1.7695313-0.0761719-2.0517578,0.0742188c-0.1923828,1.0932617,0.1035156,6.8261719,0.4960938,7.6079102   c0.2792969,0.1850586,1.7109375,0.3662109,6.6689453-0.2084961c0.4082031-0.0488281,0.7832031,0.2470703,0.8310547,0.6586914   s-0.2470703,0.7836914-0.6591797,0.831543C22.2255859,54.7797852,20.5830078,54.9106445,19.3613281,54.9106445z" fill="#373684"/><path d="M61.8789063,54.434082c-0.1660156,0-0.3251953-0.0029297-0.4755859-0.0053711   c-4.6542969-0.0834961-9.0839844-0.1411133-13.5126953-0.1982422c-4.4560547-0.0576172-8.9101563-0.1152344-13.5917969-0.1992188   c-0.4140625-0.0078125-0.7441406-0.3491211-0.7363281-0.7636719c0.0078125-0.4091797,0.3417969-0.7363281,0.75-0.7363281   c0.0039063,0,0.0087891,0,0.0136719,0c4.6787109,0.0844727,9.1308594,0.1420898,13.5830078,0.1992188   c4.4316406,0.0576172,8.8642578,0.1147461,13.5214844,0.1982422c0.9775391,0.0180664,1.8261719-0.003418,2.4003906-0.4379883   c0.8193359-0.6181641,0.90625-1.9526367,0.9238281-3.1542969c0.015625-1.0698242,0.0332031-2.2822266-0.5009766-3.1884766   c-0.2197266-0.3740234-1.2119141-0.456543-1.7441406-0.5009766c-0.5664063-0.0473633-0.9394531-0.0786133-1.2255859-0.3330078   c-0.4707031-0.4174805-0.40625-1.0976563-0.3388672-1.8173828C60.9726563,43.2143555,61,42.9228516,60.984375,42.7260742   c-0.4423828-5.6411133-3.3925781-10.9819336-7.8916016-14.2856445c-5.0878906-3.7373047-11.9570313-4.7734375-17.9189453-2.7041016   c-4.0390625,1.4013672-7.5117188,3.9599609-11.6142578,8.5546875c-0.2763672,0.309082-0.7509766,0.3349609-1.0585938,0.0600586   c-0.3095703-0.2758789-0.3359375-0.75-0.0605469-1.059082c2.8457031-3.1875,6.8085938-7.0874023,12.2412109-8.9726563   c6.4257813-2.230957,13.8193359-1.1137695,19.2998047,2.9121094c4.8447266,3.5585938,8.0224609,9.3071289,8.4990234,15.3779297   c0.0253906,0.3261719-0.0087891,0.6831055-0.0410156,1.0283203c-0.0146484,0.1474609-0.0322266,0.3398438-0.0390625,0.4960938   c0.0712891,0.0058594,0.1503906,0.0112305,0.234375,0.0180664c0.9150391,0.0766602,2.2978516,0.1918945,2.9121094,1.2353516   c0.7470703,1.2685547,0.7255859,2.7666016,0.7080078,3.9707031c-0.0166016,1.1245117-0.0458984,3.2177734-1.5195313,4.3300781   C63.8603516,54.3486328,62.7773438,54.434082,61.8789063,54.434082z" fill="#373684"/><path d="M55.2851563,46.0126953l-0.6630859-0.0112305   c-4.2998047-0.074707-8.4326172-0.1367188-12.5664063-0.1987305s-8.2685547-0.1245117-12.5683594-0.1987305   c-0.4140625-0.0073242-0.7441406-0.3486328-0.7373047-0.7631836c0.0068359-0.409668,0.3417969-0.7368164,0.75-0.7368164   c0.0039063,0,0.0087891,0,0.0126953,0c4.2998047,0.074707,8.4326172,0.1367188,12.5664063,0.1987305   c3.9130859,0.059082,7.8271484,0.1176758,11.8818359,0.1870117c0.2177734-3.1743164-1.1787109-6.4853516-3.7402344-8.7788086   c-2.5263672-2.2607422-6.1044922-3.512207-9.8847656-3.4272461c-3.0703125,0.0683594-5.9882813,1.0146484-8.2158203,2.6635742   c-2.453125,1.8154297-3.5517578,3.581543-3.9189453,6.2993164c-0.0556641,0.409668-0.4257813,0.7055664-0.84375,0.6425781   c-0.4101563-0.0551758-0.6982422-0.4331055-0.6425781-0.84375c0.4228516-3.1279297,1.7294922-5.2441406,4.5126953-7.3041992   c2.4746094-1.831543,5.6972656-2.8818359,9.0751953-2.9575195c4.1240234-0.074707,8.1113281,1.296875,10.9179688,3.8100586   c3.1074219,2.78125,4.7001953,6.9052734,4.15625,10.762207L55.2851563,46.0126953z" fill="#373684"/><path d="M5.5830078,21.512207c-0.3994141,0-0.7314453-0.3149414-0.7480469-0.7177734   c-0.0185547-0.4135742,0.3027344-0.7636719,0.7167969-0.7817383L7.21875,19.9404297   C7.5888672,19.9077148,7.9824219,20.2426758,8,20.6577148c0.0185547,0.4135742-0.3027344,0.7636719-0.7167969,0.7817383   l-1.6669922,0.0722656C5.6054688,21.512207,5.5947266,21.512207,5.5830078,21.512207z" fill="#373684"/><path d="M8.75,25.4165039H5.5c-0.4140625,0-0.75-0.3359375-0.75-0.75s0.3359375-0.75,0.75-0.75h3.25   c0.4140625,0,0.75,0.3359375,0.75,0.75S9.1640625,25.4165039,8.75,25.4165039z" fill="#373684"/><path d="M7.75,29.4165039H5.5830078c-0.4140625,0-0.75-0.3359375-0.75-0.75s0.3359375-0.75,0.75-0.75H7.75   c0.4140625,0,0.75,0.3359375,0.75,0.75S8.1640625,29.4165039,7.75,29.4165039z" fill="#373684"/><path d="M8.5,33.7636719c-0.0068359,0-0.0136719,0-0.0205078-0.0004883l-3-0.0820313   C5.0654297,33.6699219,4.7392578,33.3251953,4.75,32.9111328c0.0117188-0.4140625,0.3330078-0.7578125,0.7705078-0.7290039   l3,0.0820313C8.9345703,32.2753906,9.2607422,32.6201172,9.25,33.0341797   C9.2382813,33.4414063,8.9052734,33.7636719,8.5,33.7636719z" fill="#373684"/><path d="M5.2490234,37.7436523c-0.4003906,0-0.7333984-0.3173828-0.7480469-0.7216797   c-0.015625-0.4140625,0.3066406-0.762207,0.7207031-0.777832l2.4160156-0.090332   C8.0605469,36.1513672,8.4003906,36.4614258,8.4150391,36.875c0.015625,0.4140625-0.3066406,0.762207-0.7207031,0.777832   l-2.4160156,0.090332C5.2685547,37.7436523,5.2587891,37.7436523,5.2490234,37.7436523z" fill="#373684"/><path d="M8.7529297,41.3276367c-0.0087891,0-0.0175781,0-0.0263672-0.0004883l-3.0849609-0.109375   c-0.4140625-0.0146484-0.7382813-0.3623047-0.7236328-0.7763672c0.015625-0.4135742,0.3574219-0.7319336,0.7763672-0.7226563   l3.0849609,0.109375c0.4140625,0.0146484,0.7382813,0.3623047,0.7236328,0.7763672   C9.4882813,41.0092773,9.1552734,41.3276367,8.7529297,41.3276367z" fill="#373684"/><path d="M7.8349609,45.5737305c-0.0273438,0-0.0556641-0.0014648-0.0839844-0.0043945l-2.2587891-0.25   c-0.4111328-0.0458984-0.7080078-0.4165039-0.6621094-0.828125C4.875,44.0795898,5.2412109,43.784668,5.6582031,43.828125   l2.2587891,0.25C8.328125,44.1240234,8.625,44.4946289,8.5791016,44.90625   C8.5371094,45.2900391,8.2119141,45.5737305,7.8349609,45.5737305z" fill="#373684"/><path d="M8.5,49.4667969c-0.0009766,0-0.0029297,0-0.0039063,0l-2.5527344-0.015625   c-0.4140625-0.0024414-0.7636719-0.340332-0.7607422-0.7543945c0.0029297-0.4125977,0.3222656-0.7456055,0.734375-0.7456055   c0.0019531,0,0.0029297,0,0.0048828,0l2.5820313,0.015625C8.9179688,47.9692383,9.2519531,48.3066406,9.25,48.7211914   C9.2480469,49.1337891,8.9121094,49.4667969,8.5,49.4667969z" fill="#373684"/><path d="M7.4199219,53.8051758c-0.0224609,0-0.0458984-0.0009766-0.0693359-0.0029297l-1.8330078-0.1665039   c-0.4121094-0.0375977-0.7158203-0.4023438-0.6787109-0.8149414s0.3847656-0.7167969,0.8154297-0.6791992l1.8330078,0.1665039   c0.4121094,0.0375977,0.7158203,0.402832,0.6787109,0.8149414C8.1298828,53.5126953,7.8037109,53.8051758,7.4199219,53.8051758z" fill="#373684"/><path d="M8.3466797,57.7954102c-0.0263672,0-0.0527344-0.0014648-0.0800781-0.0043945l-2.5068359-0.265625   c-0.4121094-0.043457-0.7099609-0.4125977-0.6669922-0.824707c0.0439453-0.4116211,0.40625-0.7124023,0.8251953-0.6665039   l2.5068359,0.265625c0.4121094,0.043457,0.7099609,0.4125977,0.6669922,0.824707   C9.0507813,57.5092773,8.7255859,57.7954102,8.3466797,57.7954102z" fill="#373684"/><path d="M5.6669922,62.0458984c-0.4130859,0-0.7480469-0.3339844-0.75-0.7470703   C4.9150391,60.8842773,5.25,60.5473633,5.6640625,60.5458984l2.3339844-0.0078125c0,0,0.0009766,0,0.0019531,0   c0.4130859,0,0.7490234,0.3339844,0.75,0.7475586c0.0009766,0.4140625-0.3330078,0.7509766-0.7480469,0.7524414   l-2.3320313,0.0078125C5.6689453,62.0458984,5.6679688,62.0458984,5.6669922,62.0458984z" fill="#373684"/><path d="M26.671875,33.706543c-0.2011719,0-0.4023438-0.0805664-0.5498047-0.2402344l-1.3837891-1.4916992   c-0.2822266-0.3037109-0.2636719-0.777832,0.0400391-1.0595703c0.3037109-0.2807617,0.7783203-0.2646484,1.0595703,0.0400391   l1.3837891,1.4916992c0.2822266,0.3037109,0.2636719,0.7783203-0.0400391,1.0600586   C27.0371094,33.640625,26.8544922,33.706543,26.671875,33.706543z" fill="#373684"/><path d="M31.5878906,29.8671875c-0.3222656,0-0.6191406-0.2080078-0.7177734-0.5317383l-0.609375-2.0048828   c-0.1201172-0.3964844,0.1035156-0.8154297,0.5-0.9360352c0.3925781-0.1210938,0.8144531,0.1035156,0.9355469,0.4995117   l0.609375,2.0048828c0.1201172,0.3964844-0.1035156,0.8154297-0.5,0.9360352   C31.7333984,29.8569336,31.6601563,29.8671875,31.5878906,29.8671875z" fill="#373684"/><path d="M37.9765625,27.4316406c-0.3662109,0-0.6865234-0.2685547-0.7412109-0.6416016l-0.3007813-2.0649414   c-0.0595703-0.409668,0.2246094-0.7905273,0.6347656-0.8496094c0.4033203-0.0610352,0.7910156,0.2246094,0.8496094,0.6347656   l0.3007813,2.0629883c0.0595703,0.409668-0.2236328,0.7905273-0.6337891,0.8505859   C38.0488281,27.4291992,38.0126953,27.4316406,37.9765625,27.4316406z" fill="#373684"/><path d="M44.2773438,27.4433594c-0.0537109,0-0.1083984-0.0058594-0.1630859-0.0180664   c-0.4052734-0.0893555-0.6601563-0.4902344-0.5703125-0.8945313L44,24.4731445   c0.0888672-0.4047852,0.4960938-0.6606445,0.8935547-0.5708008c0.4052734,0.0893555,0.6601563,0.4892578,0.5712891,0.894043   l-0.4560547,2.0595703C44.9306641,27.2055664,44.6210938,27.4433594,44.2773438,27.4433594z" fill="#373684"/><path d="M50.5585938,29.7485352c-0.1357422,0-0.2734375-0.0371094-0.3974609-0.1147461   c-0.3515625-0.2202148-0.4570313-0.6831055-0.2373047-1.0336914l1.2548828-1.9980469   c0.2197266-0.3496094,0.6835938-0.4560547,1.0332031-0.2363281c0.3515625,0.2202148,0.4570313,0.6835938,0.2363281,1.0341797   l-1.2529297,1.9970703C51.0527344,29.6240234,50.8085938,29.7485352,50.5585938,29.7485352z" fill="#373684"/><path d="M55.3701172,33.8027344c-0.2470703,0-0.4882813-0.121582-0.6318359-0.3442383   c-0.2236328-0.3486328-0.1230469-0.8125,0.2255859-1.0366211l1.8662109-1.2001953   c0.3476563-0.2241211,0.8125-0.1225586,1.0361328,0.2250977c0.2236328,0.3486328,0.1230469,0.8125-0.2255859,1.0366211   l-1.8662109,1.2001953C55.6494141,33.7641602,55.5087891,33.8027344,55.3701172,33.8027344z" fill="#373684"/><path d="M58.6357422,39.3388672c-0.2929688,0-0.5722656-0.1733398-0.6923828-0.4609375   c-0.1591797-0.3823242,0.0214844-0.8217773,0.4033203-0.980957l1.7568359-0.7338867   c0.3818359-0.1586914,0.8212891,0.0200195,0.9814453,0.402832c0.1591797,0.3823242-0.0214844,0.8217773-0.4033203,0.980957   l-1.7568359,0.7338867C58.8300781,39.3203125,58.7324219,39.3388672,58.6357422,39.3388672z" fill="#373684"/><path d="M59.5068359,45.5029297c-0.1669922,0-0.3408203-0.0014648-0.5244141-0.0053711   c-0.4140625-0.0092773-0.7421875-0.3525391-0.7333984-0.7666016c0.0087891-0.4082031,0.3427734-0.7333984,0.75-0.7333984   c0.0048828,0,0.0107422,0,0.0166016,0C59.5039063,44.0078125,59.9179688,44,60.3056641,43.9936523   c0.4697266-0.0097656,0.8974609-0.0161133,1.3378906,0.0073242c0.4140625,0.0219727,0.7314453,0.3745117,0.7099609,0.7880859   c-0.0224609,0.4140625-0.375,0.7177734-0.7880859,0.7099609c-0.40625-0.0219727-0.8007813-0.0136719-1.2324219-0.0058594   C60.0742188,45.4980469,59.8017578,45.5029297,59.5068359,45.5029297z" fill="#373684"/><path d="M61.0625,54.0625c-0.4140625,0-0.75-0.3359375-0.75-0.75v-2.5c0-0.4140625,0.3359375-0.75,0.75-0.75   s0.75,0.3359375,0.75,0.75v2.5C61.8125,53.7265625,61.4765625,54.0625,61.0625,54.0625z" fill="#373684"/><path d="M56.2167969,52.9477539l0.75-0.0097656l-0.75-0.0102539l-0.0400391-3.105957   c-0.0048828-0.4145508,0.3271484-0.7543945,0.7412109-0.7592773c0.0029297,0,0.0058594,0,0.0087891,0   c0.4101563,0,0.7451172,0.3295898,0.75,0.7407227l0.0400391,3.1044922L56.2167969,52.9477539z" fill="#373684"/><path d="M52.9892578,53.7495117c-0.0068359,0-0.0146484,0-0.0224609-0.0004883   c-0.4140625-0.012207-0.7392578-0.3574219-0.7275391-0.7714844l0.0625-2.1865234   c0.0117188-0.4067383,0.3447266-0.7290039,0.75-0.7290039c0.0068359,0,0.0136719,0,0.0214844,0.0004883   c0.4140625,0.0112305,0.7402344,0.3564453,0.7285156,0.7705078l-0.0625,2.1884766   C53.7265625,53.4282227,53.3935547,53.7495117,52.9892578,53.7495117z" fill="#373684"/><path d="M48.875,53.5c-0.4140625,0-0.75-0.3359375-0.75-0.75v-2.875c0-0.4140625,0.3359375-0.75,0.75-0.75   s0.75,0.3359375,0.75,0.75v2.875C49.625,53.1640625,49.2890625,53.5,48.875,53.5z" fill="#373684"/><path d="M45.0556641,53.4980469c-0.0517578,0-0.1044922-0.0053711-0.1572266-0.0166016   c-0.4052734-0.0859375-0.6630859-0.484375-0.5771484-0.8896484l0.3730469-1.7495117   c0.0859375-0.4047852,0.4824219-0.6640625,0.8896484-0.5776367c0.4052734,0.0859375,0.6630859,0.484375,0.5771484,0.8891602   l-0.3730469,1.7504883C45.7128906,53.2568359,45.4023438,53.4980469,45.0556641,53.4980469z" fill="#373684"/><path d="M40.6054688,53.5605469c-0.0263672,0-0.0527344-0.0014648-0.0791016-0.0039063   c-0.4121094-0.043457-0.7109375-0.4125977-0.6679688-0.824707l0.3476563-3.309082   c0.0439453-0.4116211,0.4248047-0.6992188,0.8242188-0.6674805c0.4121094,0.043457,0.7109375,0.4125977,0.6679688,0.824707   l-0.3476563,3.309082C41.3095703,53.2744141,40.984375,53.5605469,40.6054688,53.5605469z" fill="#373684"/><path d="M36.8720703,53.4995117c-0.0400391,0-0.0810547-0.0029297-0.1220703-0.0097656   c-0.4082031-0.0668945-0.6855469-0.4521484-0.6191406-0.8613281c0.0478516-0.2924805,0.0585938-0.6064453,0.0703125-0.9204102   c0.0146484-0.3647461,0.0292969-0.7416992,0.0898438-1.1113281c0.0673828-0.4086914,0.4619141-0.6806641,0.8623047-0.6181641   c0.4082031,0.0673828,0.6855469,0.4536133,0.6181641,0.8623047c-0.0488281,0.2939453-0.0585938,0.6098633-0.0712891,0.9257813   c-0.0146484,0.3623047-0.0292969,0.7363281-0.0888672,1.1040039   C37.5507813,53.2382813,37.2333984,53.4995117,36.8720703,53.4995117z" fill="#373684"/><path d="M33.2509766,52.375c-0.0488281,0-0.0976563-0.0043945-0.1464844-0.0141602   c-0.40625-0.0805664-0.6708984-0.4755859-0.5898438-0.8818359c0.0361328-0.1811523-0.0029297-0.487793-0.0400391-0.7841797   c-0.0517578-0.4145508-0.1054688-0.8427734-0.0224609-1.2626953c0.0800781-0.4067383,0.4824219-0.6660156,0.8808594-0.5898438   c0.40625,0.0805664,0.6708984,0.4755859,0.5898438,0.8818359c-0.0361328,0.1811523,0.0029297,0.487793,0.0400391,0.7841797   c0.0517578,0.4145508,0.1054688,0.8427734,0.0224609,1.2626953C33.9150391,52.1279297,33.6015625,52.375,33.2509766,52.375z" fill="#373684"/><path d="M20.75,54.625c-0.0058594,0-0.0117188,0-0.0175781,0   C20.3183594,54.6152344,19.9912109,54.2719727,20,53.8579102c0.0117188-0.5244141-0.0039063-1.0800781-0.0205078-1.6352539   c-0.0166016-0.5766602-0.0332031-1.152832-0.0214844-1.6977539c0.0087891-0.4130859,0.3066406-0.746582,0.7666016-0.7333984   c0.4140625,0.0092773,0.7421875,0.3525391,0.7333984,0.7666016c-0.0117188,0.5200195,0.0048828,1.0703125,0.0205078,1.6206055   c0.0175781,0.5820313,0.0341797,1.1640625,0.0214844,1.7133789C21.4902344,54.300293,21.15625,54.625,20.75,54.625z" fill="#373684"/></g></svg>